<svg id="Layer_1" data-name="Layer 1" xmlns="http://www.w3.org/2000/svg" xmlns:xlink="http://www.w3.org/1999/xlink" viewBox="0 0 182.55 216.44"><defs><style>.cls-1,.cls-2,.cls-3{fill:none;stroke-miterlimit:10;stroke-width:10px;}.cls-1{stroke:url(#linear-gradient);}.cls-2{stroke:url(#linear-gradient-2);}.cls-3{stroke:url(#linear-gradient-3);}</style><linearGradient id="linear-gradient" x1="22.53" y1="44.05" x2="179.3" y2="44.05" gradientUnits="userSpaceOnUse"><stop offset="0" stop-color="#2700e1"/><stop offset="0.51" stop-color="#00aeef"/><stop offset="1" stop-color="#2700e1"/></linearGradient><linearGradient id="linear-gradient-2" x1="0" y1="171.47" x2="163.09" y2="171.47" xlink:href="#linear-gradient"/><linearGradient id="linear-gradient-3" x1="0" y1="107.18" x2="182.55" y2="107.18" xlink:href="#linear-gradient"/></defs><path class="cls-1" d="M174.3,32a27,27,0,0,1-15.51,24.45L103,82.69,41.16,60.42a26.89,26.89,0,0,0-16.5-.59L135.81,7.57A27,27,0,0,1,174.3,32Z"/><path class="cls-2" d="M160.42,153.66a27.87,27.87,0,0,1-2.9,1.59l-114,53.61a27,27,0,1,1-23-48.87l59.73-28.08,61.14,22a26.93,26.93,0,0,0,19-.28Z"/><path class="cls-3" d="M176,137.69a27,27,0,0,1-34.56,16.25l-61.14-22-57.4-20.69a27,27,0,1,1,18.31-50.8L103,82.69l56.74,20.45A27,27,0,0,1,176,137.69Z"/></svg>